<svg width="15" height="15" viewBox="0 0 15 15" fill="none" xmlns="http://www.w3.org/2000/svg">
<path d="M5.62951 1.55424C6.16655 -0.327574 8.83345 -0.327574 9.37049 1.55424V1.55424C9.65858 2.5637 10.6957 3.16246 11.7139 2.90723V2.90723C13.6122 2.43141 14.9456 4.74101 13.5844 6.14701V6.14701C12.8543 6.90123 12.8543 8.09877 13.5844 8.85299V8.85299C14.9456 10.259 13.6122 12.5686 11.7139 12.0928V12.0928C10.6957 11.8375 9.65858 12.4363 9.37049 13.4458V13.4458C8.83345 15.3276 6.16655 15.3276 5.62951 13.4458V13.4458C5.34142 12.4363 4.30433 11.8375 3.28607 12.0928V12.0928C1.38785 12.5686 0.0543974 10.259 1.41557 8.85299V8.85299C2.14575 8.09877 2.14575 6.90123 1.41557 6.14701V6.14701C0.0543973 4.74101 1.38785 2.43141 3.28607 2.90723V2.90723C4.30433 3.16246 5.34142 2.5637 5.62951 1.55424V1.55424Z" fill="white"/>
</svg>
